<mxfile host="app.diagrams.net" agent="Mozilla/5.0 (Windows NT 10.0; Win64; x64) AppleWebKit/537.36 (KHTML, like Gecko) Chrome/137.0.0.0 Safari/537.36 OPR/121.0.0.0" version="28.2.0">
  <diagram name="Страница — 3" id="5VQxnSfNS6PlfpTl5MEV">
    <mxGraphModel dx="1384" dy="755" grid="1" gridSize="10" guides="1" tooltips="1" connect="1" arrows="1" fold="1" page="1" pageScale="1" pageWidth="827" pageHeight="1169" math="0" shadow="0">
      <root>
        <mxCell id="0" />
        <mxCell id="1" parent="0" />
        <mxCell id="W4bPpXDh2dCY3aN5Ka2S-25" value="" style="rounded=0;whiteSpace=wrap;html=1;" parent="1" vertex="1">
          <mxGeometry x="178" y="274" width="90" height="20" as="geometry" />
        </mxCell>
        <mxCell id="J6o21qsDTDcMWBDYwPVb-5" style="edgeStyle=orthogonalEdgeStyle;rounded=0;orthogonalLoop=1;jettySize=auto;html=1;exitX=1;exitY=0;exitDx=0;exitDy=0;entryX=0;entryY=0;entryDx=0;entryDy=0;endArrow=block;endFill=1;" parent="1" source="J6o21qsDTDcMWBDYwPVb-1" target="J6o21qsDTDcMWBDYwPVb-2" edge="1">
          <mxGeometry relative="1" as="geometry">
            <Array as="points">
              <mxPoint x="318" y="324" />
              <mxPoint x="318" y="324" />
            </Array>
          </mxGeometry>
        </mxCell>
        <mxCell id="J6o21qsDTDcMWBDYwPVb-1" value="" style="rounded=0;whiteSpace=wrap;html=1;" parent="1" vertex="1">
          <mxGeometry x="218" y="324" width="10" height="50" as="geometry" />
        </mxCell>
        <mxCell id="J6o21qsDTDcMWBDYwPVb-8" style="edgeStyle=orthogonalEdgeStyle;rounded=0;orthogonalLoop=1;jettySize=auto;html=1;exitX=0;exitY=1;exitDx=0;exitDy=0;entryX=1;entryY=1;entryDx=0;entryDy=0;endArrow=open;endFill=0;jumpSize=6;dashed=1;" parent="1" source="J6o21qsDTDcMWBDYwPVb-2" target="J6o21qsDTDcMWBDYwPVb-1" edge="1">
          <mxGeometry relative="1" as="geometry">
            <Array as="points">
              <mxPoint x="318" y="374" />
              <mxPoint x="318" y="374" />
            </Array>
          </mxGeometry>
        </mxCell>
        <mxCell id="J6o21qsDTDcMWBDYwPVb-2" value="" style="rounded=0;whiteSpace=wrap;html=1;" parent="1" vertex="1">
          <mxGeometry x="398" y="324" width="10" height="50" as="geometry" />
        </mxCell>
        <mxCell id="J6o21qsDTDcMWBDYwPVb-3" value="Обработка заявки" style="text;html=1;align=center;verticalAlign=middle;whiteSpace=wrap;rounded=0;fontSize=8;" parent="1" vertex="1">
          <mxGeometry x="278" y="309" width="70" height="10" as="geometry" />
        </mxCell>
        <mxCell id="J6o21qsDTDcMWBDYwPVb-6" value="" style="endArrow=block;html=1;rounded=0;entryX=1;entryY=0.8;entryDx=0;entryDy=0;entryPerimeter=0;endFill=1;" parent="1" target="J6o21qsDTDcMWBDYwPVb-2" edge="1">
          <mxGeometry width="50" height="50" relative="1" as="geometry">
            <mxPoint x="408" y="334" as="sourcePoint" />
            <mxPoint x="428" y="354" as="targetPoint" />
            <Array as="points">
              <mxPoint x="428" y="334" />
              <mxPoint x="428" y="364" />
              <mxPoint x="418" y="364" />
            </Array>
          </mxGeometry>
        </mxCell>
        <mxCell id="J6o21qsDTDcMWBDYwPVb-9" value="Открыть страницу заявки" style="text;html=1;align=center;verticalAlign=middle;whiteSpace=wrap;rounded=0;fontSize=8;" parent="1" vertex="1">
          <mxGeometry x="438" y="344" width="70" height="10" as="geometry" />
        </mxCell>
        <mxCell id="-hV0Jhw2usl-gfA-G9tJ-8" style="edgeStyle=orthogonalEdgeStyle;rounded=0;orthogonalLoop=1;jettySize=auto;html=1;exitX=1;exitY=0;exitDx=0;exitDy=0;entryX=0;entryY=0;entryDx=0;entryDy=0;endArrow=block;endFill=1;" parent="1" source="-hV0Jhw2usl-gfA-G9tJ-9" target="-hV0Jhw2usl-gfA-G9tJ-11" edge="1">
          <mxGeometry relative="1" as="geometry">
            <Array as="points">
              <mxPoint x="318" y="415" />
              <mxPoint x="318" y="415" />
            </Array>
          </mxGeometry>
        </mxCell>
        <mxCell id="-hV0Jhw2usl-gfA-G9tJ-9" value="" style="rounded=0;whiteSpace=wrap;html=1;" parent="1" vertex="1">
          <mxGeometry x="218" y="415" width="10" height="55" as="geometry" />
        </mxCell>
        <mxCell id="-hV0Jhw2usl-gfA-G9tJ-11" value="" style="rounded=0;whiteSpace=wrap;html=1;" parent="1" vertex="1">
          <mxGeometry x="398" y="415" width="10" height="55" as="geometry" />
        </mxCell>
        <mxCell id="-hV0Jhw2usl-gfA-G9tJ-12" value="Заполнить заявку данными" style="text;html=1;align=center;verticalAlign=middle;whiteSpace=wrap;rounded=0;fontSize=8;" parent="1" vertex="1">
          <mxGeometry x="248" y="400" width="130" height="10" as="geometry" />
        </mxCell>
        <mxCell id="-hV0Jhw2usl-gfA-G9tJ-13" value="" style="endArrow=block;html=1;rounded=0;endFill=1;entryX=1;entryY=0.636;entryDx=0;entryDy=0;entryPerimeter=0;" parent="1" target="-hV0Jhw2usl-gfA-G9tJ-11" edge="1">
          <mxGeometry width="50" height="50" relative="1" as="geometry">
            <mxPoint x="408" y="430" as="sourcePoint" />
            <mxPoint x="418" y="470" as="targetPoint" />
            <Array as="points">
              <mxPoint x="418" y="430" />
              <mxPoint x="428" y="430" />
              <mxPoint x="428" y="450" />
            </Array>
          </mxGeometry>
        </mxCell>
        <mxCell id="-hV0Jhw2usl-gfA-G9tJ-14" value="Проверить данные" style="text;html=1;align=center;verticalAlign=middle;whiteSpace=wrap;rounded=0;fontSize=8;" parent="1" vertex="1">
          <mxGeometry x="428" y="437" width="70" height="10" as="geometry" />
        </mxCell>
        <mxCell id="RP8nAy-NbZ3bPqBxSjjY-9" style="edgeStyle=orthogonalEdgeStyle;rounded=0;orthogonalLoop=1;jettySize=auto;html=1;exitX=1;exitY=0.5;exitDx=0;exitDy=0;" parent="1" edge="1">
          <mxGeometry relative="1" as="geometry">
            <mxPoint x="284" y="452" as="targetPoint" />
            <mxPoint x="256.50000000000153" y="451.75000000000006" as="sourcePoint" />
          </mxGeometry>
        </mxCell>
        <mxCell id="RP8nAy-NbZ3bPqBxSjjY-1" value="" style="ellipse;whiteSpace=wrap;html=1;aspect=fixed;" parent="1" vertex="1">
          <mxGeometry x="241" y="442" width="19.5" height="19.5" as="geometry" />
        </mxCell>
        <mxCell id="RP8nAy-NbZ3bPqBxSjjY-5" value="Уровень приоритетности" style="text;html=1;align=center;verticalAlign=middle;whiteSpace=wrap;rounded=0;fontSize=7;" parent="1" vertex="1">
          <mxGeometry x="224" y="427" width="70" height="10" as="geometry" />
        </mxCell>
        <mxCell id="RP8nAy-NbZ3bPqBxSjjY-10" style="edgeStyle=orthogonalEdgeStyle;rounded=0;orthogonalLoop=1;jettySize=auto;html=1;exitX=1;exitY=0.5;exitDx=0;exitDy=0;" parent="1" edge="1">
          <mxGeometry relative="1" as="geometry">
            <mxPoint x="335.5" y="452" as="targetPoint" />
            <mxPoint x="308.00000000000153" y="451.75000000000006" as="sourcePoint" />
          </mxGeometry>
        </mxCell>
        <mxCell id="RP8nAy-NbZ3bPqBxSjjY-11" value="" style="ellipse;whiteSpace=wrap;html=1;aspect=fixed;" parent="1" vertex="1">
          <mxGeometry x="293.5" y="442" width="19.5" height="19.5" as="geometry" />
        </mxCell>
        <mxCell id="RP8nAy-NbZ3bPqBxSjjY-12" style="edgeStyle=orthogonalEdgeStyle;rounded=0;orthogonalLoop=1;jettySize=auto;html=1;exitX=1;exitY=0.5;exitDx=0;exitDy=0;" parent="1" edge="1">
          <mxGeometry relative="1" as="geometry">
            <mxPoint x="391" y="452" as="targetPoint" />
            <mxPoint x="363.50000000000153" y="451.75000000000006" as="sourcePoint" />
          </mxGeometry>
        </mxCell>
        <mxCell id="RP8nAy-NbZ3bPqBxSjjY-13" value="" style="ellipse;whiteSpace=wrap;html=1;aspect=fixed;" parent="1" vertex="1">
          <mxGeometry x="348" y="442" width="19.5" height="19.5" as="geometry" />
        </mxCell>
        <mxCell id="RP8nAy-NbZ3bPqBxSjjY-14" value="Назначение мастера" style="text;html=1;align=center;verticalAlign=middle;whiteSpace=wrap;rounded=0;fontSize=7;" parent="1" vertex="1">
          <mxGeometry x="288.25" y="427" width="50" height="10" as="geometry" />
        </mxCell>
        <mxCell id="RP8nAy-NbZ3bPqBxSjjY-15" value="Уточнение деталей" style="text;html=1;align=center;verticalAlign=middle;whiteSpace=wrap;rounded=0;fontSize=7;" parent="1" vertex="1">
          <mxGeometry x="344.25" y="427" width="50.75" height="10" as="geometry" />
        </mxCell>
        <mxCell id="RP8nAy-NbZ3bPqBxSjjY-16" value="" style="rounded=0;whiteSpace=wrap;html=1;" parent="1" vertex="1">
          <mxGeometry x="218" y="470" width="10" height="90" as="geometry" />
        </mxCell>
        <mxCell id="RP8nAy-NbZ3bPqBxSjjY-17" value="" style="rounded=0;whiteSpace=wrap;html=1;" parent="1" vertex="1">
          <mxGeometry x="398" y="470" width="10" height="90" as="geometry" />
        </mxCell>
        <mxCell id="RP8nAy-NbZ3bPqBxSjjY-18" value="" style="endArrow=open;html=1;rounded=0;exitX=-0.026;exitY=0.555;exitDx=0;exitDy=0;exitPerimeter=0;endFill=0;dashed=1;" parent="1" source="RP8nAy-NbZ3bPqBxSjjY-17" edge="1">
          <mxGeometry width="50" height="50" relative="1" as="geometry">
            <mxPoint x="268" y="520" as="sourcePoint" />
            <mxPoint x="228" y="520" as="targetPoint" />
          </mxGeometry>
        </mxCell>
        <mxCell id="RP8nAy-NbZ3bPqBxSjjY-21" value="" style="endArrow=none;html=1;rounded=0;" parent="1" edge="1">
          <mxGeometry width="50" height="50" relative="1" as="geometry">
            <mxPoint x="118" y="470" as="sourcePoint" />
            <mxPoint x="708" y="470" as="targetPoint" />
          </mxGeometry>
        </mxCell>
        <mxCell id="RP8nAy-NbZ3bPqBxSjjY-22" value="" style="endArrow=none;html=1;rounded=0;" parent="1" edge="1">
          <mxGeometry width="50" height="50" relative="1" as="geometry">
            <mxPoint x="118" y="910" as="sourcePoint" />
            <mxPoint x="118" y="470" as="targetPoint" />
            <Array as="points">
              <mxPoint x="118" y="510" />
            </Array>
          </mxGeometry>
        </mxCell>
        <mxCell id="RP8nAy-NbZ3bPqBxSjjY-25" value="" style="shape=card;whiteSpace=wrap;html=1;direction=west;size=20;" parent="1" vertex="1">
          <mxGeometry x="118" y="470" width="80" height="30" as="geometry" />
        </mxCell>
        <mxCell id="RP8nAy-NbZ3bPqBxSjjY-26" value="альт" style="text;html=1;align=center;verticalAlign=middle;whiteSpace=wrap;rounded=0;fontSize=8;fontStyle=1" parent="1" vertex="1">
          <mxGeometry x="118" y="480" width="37" height="10" as="geometry" />
        </mxCell>
        <mxCell id="RP8nAy-NbZ3bPqBxSjjY-29" value="" style="endArrow=none;html=1;rounded=0;dashed=1;dashPattern=8 8;" parent="1" edge="1">
          <mxGeometry width="50" height="50" relative="1" as="geometry">
            <mxPoint x="118" y="540" as="sourcePoint" />
            <mxPoint x="708" y="540" as="targetPoint" />
          </mxGeometry>
        </mxCell>
        <mxCell id="RP8nAy-NbZ3bPqBxSjjY-30" value="" style="endArrow=open;html=1;rounded=0;exitX=-0.026;exitY=0.555;exitDx=0;exitDy=0;exitPerimeter=0;endFill=0;dashed=1;" parent="1" edge="1">
          <mxGeometry width="50" height="50" relative="1" as="geometry">
            <mxPoint x="398.25" y="559.55" as="sourcePoint" />
            <mxPoint x="228.25" y="559.5500000000001" as="targetPoint" />
          </mxGeometry>
        </mxCell>
        <mxCell id="RP8nAy-NbZ3bPqBxSjjY-32" value="error(&quot;Данные неверны&quot;)" style="text;html=1;align=center;verticalAlign=middle;whiteSpace=wrap;rounded=0;fontSize=8;fontStyle=0" parent="1" vertex="1">
          <mxGeometry x="264.75" y="507" width="97" height="10" as="geometry" />
        </mxCell>
        <mxCell id="RP8nAy-NbZ3bPqBxSjjY-33" value="сообщение(&quot;Сохранить добавленные данные?&quot;)" style="text;html=1;align=center;verticalAlign=middle;whiteSpace=wrap;rounded=0;fontSize=7;fontStyle=0" parent="1" vertex="1">
          <mxGeometry x="220" y="547" width="190" height="10" as="geometry" />
        </mxCell>
        <mxCell id="W4bPpXDh2dCY3aN5Ka2S-7" style="edgeStyle=orthogonalEdgeStyle;rounded=0;orthogonalLoop=1;jettySize=auto;html=1;exitX=1;exitY=0;exitDx=0;exitDy=0;entryX=0;entryY=0;entryDx=0;entryDy=0;endArrow=block;endFill=1;" parent="1" source="RP8nAy-NbZ3bPqBxSjjY-34" target="RP8nAy-NbZ3bPqBxSjjY-35" edge="1">
          <mxGeometry relative="1" as="geometry">
            <Array as="points">
              <mxPoint x="318" y="600" />
              <mxPoint x="318" y="600" />
            </Array>
          </mxGeometry>
        </mxCell>
        <mxCell id="RP8nAy-NbZ3bPqBxSjjY-34" value="" style="rounded=0;whiteSpace=wrap;html=1;" parent="1" vertex="1">
          <mxGeometry x="218" y="600" width="10" height="150" as="geometry" />
        </mxCell>
        <mxCell id="RP8nAy-NbZ3bPqBxSjjY-35" value="" style="rounded=0;whiteSpace=wrap;html=1;" parent="1" vertex="1">
          <mxGeometry x="398" y="600" width="10" height="40" as="geometry" />
        </mxCell>
        <mxCell id="RP8nAy-NbZ3bPqBxSjjY-45" style="edgeStyle=orthogonalEdgeStyle;rounded=0;orthogonalLoop=1;jettySize=auto;html=1;exitX=1;exitY=0.5;exitDx=0;exitDy=0;" parent="1" edge="1">
          <mxGeometry relative="1" as="geometry">
            <mxPoint x="454" y="670" as="targetPoint" />
            <mxPoint x="426.50000000000153" y="669.75" as="sourcePoint" />
          </mxGeometry>
        </mxCell>
        <mxCell id="RP8nAy-NbZ3bPqBxSjjY-46" value="" style="ellipse;whiteSpace=wrap;html=1;aspect=fixed;" parent="1" vertex="1">
          <mxGeometry x="411" y="660" width="19.5" height="19.5" as="geometry" />
        </mxCell>
        <mxCell id="RP8nAy-NbZ3bPqBxSjjY-47" value="Уровень приоритетности" style="text;html=1;align=center;verticalAlign=middle;whiteSpace=wrap;rounded=0;fontSize=7;" parent="1" vertex="1">
          <mxGeometry x="394" y="645" width="70" height="10" as="geometry" />
        </mxCell>
        <mxCell id="RP8nAy-NbZ3bPqBxSjjY-48" style="edgeStyle=orthogonalEdgeStyle;rounded=0;orthogonalLoop=1;jettySize=auto;html=1;exitX=1;exitY=0.5;exitDx=0;exitDy=0;" parent="1" edge="1">
          <mxGeometry relative="1" as="geometry">
            <mxPoint x="505.5" y="670" as="targetPoint" />
            <mxPoint x="478.00000000000153" y="669.75" as="sourcePoint" />
          </mxGeometry>
        </mxCell>
        <mxCell id="RP8nAy-NbZ3bPqBxSjjY-49" value="" style="ellipse;whiteSpace=wrap;html=1;aspect=fixed;" parent="1" vertex="1">
          <mxGeometry x="463.5" y="660" width="19.5" height="19.5" as="geometry" />
        </mxCell>
        <mxCell id="RP8nAy-NbZ3bPqBxSjjY-50" style="edgeStyle=orthogonalEdgeStyle;rounded=0;orthogonalLoop=1;jettySize=auto;html=1;exitX=1;exitY=0.5;exitDx=0;exitDy=0;" parent="1" edge="1">
          <mxGeometry relative="1" as="geometry">
            <mxPoint x="561" y="670" as="targetPoint" />
            <mxPoint x="533.5000000000016" y="669.75" as="sourcePoint" />
          </mxGeometry>
        </mxCell>
        <mxCell id="RP8nAy-NbZ3bPqBxSjjY-51" value="" style="ellipse;whiteSpace=wrap;html=1;aspect=fixed;" parent="1" vertex="1">
          <mxGeometry x="518" y="660" width="19.5" height="19.5" as="geometry" />
        </mxCell>
        <mxCell id="RP8nAy-NbZ3bPqBxSjjY-52" value="Назначение мастера" style="text;html=1;align=center;verticalAlign=middle;whiteSpace=wrap;rounded=0;fontSize=7;" parent="1" vertex="1">
          <mxGeometry x="458.25" y="645" width="50" height="10" as="geometry" />
        </mxCell>
        <mxCell id="RP8nAy-NbZ3bPqBxSjjY-53" value="Уточнение деталей" style="text;html=1;align=center;verticalAlign=middle;whiteSpace=wrap;rounded=0;fontSize=7;" parent="1" vertex="1">
          <mxGeometry x="514.25" y="645" width="50.75" height="10" as="geometry" />
        </mxCell>
        <mxCell id="RP8nAy-NbZ3bPqBxSjjY-54" value="" style="endArrow=classic;html=1;rounded=0;exitX=1;exitY=1;exitDx=0;exitDy=0;" parent="1" source="RP8nAy-NbZ3bPqBxSjjY-35" edge="1">
          <mxGeometry width="50" height="50" relative="1" as="geometry">
            <mxPoint x="438" y="640" as="sourcePoint" />
            <mxPoint x="568" y="640" as="targetPoint" />
            <Array as="points" />
          </mxGeometry>
        </mxCell>
        <mxCell id="W4bPpXDh2dCY3aN5Ka2S-3" style="edgeStyle=orthogonalEdgeStyle;rounded=0;orthogonalLoop=1;jettySize=auto;html=1;exitX=0;exitY=1;exitDx=0;exitDy=0;entryX=1;entryY=0;entryDx=0;entryDy=0;dashed=1;endArrow=open;endFill=0;" parent="1" source="RP8nAy-NbZ3bPqBxSjjY-55" target="W4bPpXDh2dCY3aN5Ka2S-2" edge="1">
          <mxGeometry relative="1" as="geometry">
            <Array as="points">
              <mxPoint x="528" y="700" />
              <mxPoint x="528" y="700" />
            </Array>
          </mxGeometry>
        </mxCell>
        <mxCell id="W4bPpXDh2dCY3aN5Ka2S-30" style="edgeStyle=orthogonalEdgeStyle;rounded=0;orthogonalLoop=1;jettySize=auto;html=1;exitX=0.5;exitY=0;exitDx=0;exitDy=0;entryX=0.5;entryY=1;entryDx=0;entryDy=0;endArrow=none;endFill=0;dashed=1;" parent="1" source="RP8nAy-NbZ3bPqBxSjjY-55" target="W4bPpXDh2dCY3aN5Ka2S-29" edge="1">
          <mxGeometry relative="1" as="geometry">
            <mxPoint x="573.9784946236558" y="300" as="targetPoint" />
          </mxGeometry>
        </mxCell>
        <mxCell id="RP8nAy-NbZ3bPqBxSjjY-55" value="" style="rounded=0;whiteSpace=wrap;html=1;" parent="1" vertex="1">
          <mxGeometry x="569" y="640" width="10" height="60" as="geometry" />
        </mxCell>
        <mxCell id="RP8nAy-NbZ3bPqBxSjjY-58" value="Сохранить данные в бд" style="text;html=1;align=center;verticalAlign=middle;whiteSpace=wrap;rounded=0;fontSize=8;" parent="1" vertex="1">
          <mxGeometry x="599" y="665" width="70" height="10" as="geometry" />
        </mxCell>
        <mxCell id="V0PnPWEsgfTPdEMOI_Nv-1" value="Передать данные обработки&amp;nbsp;" style="text;html=1;align=center;verticalAlign=middle;whiteSpace=wrap;rounded=0;fontSize=8;" parent="1" vertex="1">
          <mxGeometry x="423.37" y="585" width="119.75" height="10" as="geometry" />
        </mxCell>
        <mxCell id="W4bPpXDh2dCY3aN5Ka2S-1" value="" style="endArrow=block;html=1;rounded=0;entryX=1;entryY=0.8;entryDx=0;entryDy=0;entryPerimeter=0;endFill=1;" parent="1" edge="1">
          <mxGeometry width="50" height="50" relative="1" as="geometry">
            <mxPoint x="579" y="655" as="sourcePoint" />
            <mxPoint x="579" y="685" as="targetPoint" />
            <Array as="points">
              <mxPoint x="599" y="655" />
              <mxPoint x="599" y="685" />
              <mxPoint x="589" y="685" />
            </Array>
          </mxGeometry>
        </mxCell>
        <mxCell id="W4bPpXDh2dCY3aN5Ka2S-4" style="edgeStyle=orthogonalEdgeStyle;rounded=0;orthogonalLoop=1;jettySize=auto;html=1;exitX=0;exitY=1;exitDx=0;exitDy=0;endArrow=open;endFill=0;dashed=1;" parent="1" source="W4bPpXDh2dCY3aN5Ka2S-2" edge="1">
          <mxGeometry relative="1" as="geometry">
            <mxPoint x="228" y="750.0357142857143" as="targetPoint" />
            <Array as="points">
              <mxPoint x="268" y="750" />
              <mxPoint x="268" y="750" />
            </Array>
          </mxGeometry>
        </mxCell>
        <mxCell id="W4bPpXDh2dCY3aN5Ka2S-2" value="" style="rounded=0;whiteSpace=wrap;html=1;" parent="1" vertex="1">
          <mxGeometry x="398" y="700" width="10" height="50" as="geometry" />
        </mxCell>
        <mxCell id="W4bPpXDh2dCY3aN5Ka2S-5" value="сообщение(&quot;Успешно&quot;)" style="text;html=1;align=center;verticalAlign=middle;whiteSpace=wrap;rounded=0;fontSize=8;fontStyle=0" parent="1" vertex="1">
          <mxGeometry x="264.5" y="737" width="97" height="10" as="geometry" />
        </mxCell>
        <mxCell id="W4bPpXDh2dCY3aN5Ka2S-6" value="Вернуть результат операции" style="text;html=1;align=center;verticalAlign=middle;whiteSpace=wrap;rounded=0;fontSize=8;fontStyle=0" parent="1" vertex="1">
          <mxGeometry x="432.87" y="687" width="113.25" height="10" as="geometry" />
        </mxCell>
        <mxCell id="W4bPpXDh2dCY3aN5Ka2S-14" style="edgeStyle=orthogonalEdgeStyle;rounded=0;orthogonalLoop=1;jettySize=auto;html=1;exitX=1;exitY=0;exitDx=0;exitDy=0;entryX=0;entryY=0;entryDx=0;entryDy=0;endArrow=block;endFill=1;" parent="1" source="W4bPpXDh2dCY3aN5Ka2S-8" target="W4bPpXDh2dCY3aN5Ka2S-9" edge="1">
          <mxGeometry relative="1" as="geometry">
            <Array as="points">
              <mxPoint x="318" y="790" />
              <mxPoint x="318" y="790" />
            </Array>
          </mxGeometry>
        </mxCell>
        <mxCell id="W4bPpXDh2dCY3aN5Ka2S-8" value="" style="rounded=0;whiteSpace=wrap;html=1;" parent="1" vertex="1">
          <mxGeometry x="218" y="790" width="10" height="110" as="geometry" />
        </mxCell>
        <mxCell id="W4bPpXDh2dCY3aN5Ka2S-17" style="edgeStyle=orthogonalEdgeStyle;rounded=0;orthogonalLoop=1;jettySize=auto;html=1;exitX=0;exitY=1;exitDx=0;exitDy=0;entryX=1;entryY=1;entryDx=0;entryDy=0;endArrow=open;endFill=0;dashed=1;" parent="1" source="W4bPpXDh2dCY3aN5Ka2S-9" target="W4bPpXDh2dCY3aN5Ka2S-8" edge="1">
          <mxGeometry relative="1" as="geometry">
            <Array as="points">
              <mxPoint x="308" y="900" />
              <mxPoint x="308" y="900" />
            </Array>
          </mxGeometry>
        </mxCell>
        <mxCell id="W4bPpXDh2dCY3aN5Ka2S-9" value="" style="rounded=0;whiteSpace=wrap;html=1;" parent="1" vertex="1">
          <mxGeometry x="398" y="790" width="10" height="110" as="geometry" />
        </mxCell>
        <mxCell id="W4bPpXDh2dCY3aN5Ka2S-10" value="Закрыть форму обработки заявки" style="text;html=1;align=center;verticalAlign=middle;whiteSpace=wrap;rounded=0;fontSize=8;" parent="1" vertex="1">
          <mxGeometry x="440.5" y="814" width="70" height="10" as="geometry" />
        </mxCell>
        <mxCell id="W4bPpXDh2dCY3aN5Ka2S-11" value="" style="endArrow=block;html=1;rounded=0;entryX=1;entryY=0.8;entryDx=0;entryDy=0;entryPerimeter=0;endFill=1;" parent="1" edge="1">
          <mxGeometry width="50" height="50" relative="1" as="geometry">
            <mxPoint x="408" y="860" as="sourcePoint" />
            <mxPoint x="408" y="890" as="targetPoint" />
            <Array as="points">
              <mxPoint x="428" y="860" />
              <mxPoint x="428" y="890" />
              <mxPoint x="418" y="890" />
            </Array>
          </mxGeometry>
        </mxCell>
        <mxCell id="W4bPpXDh2dCY3aN5Ka2S-12" value="" style="endArrow=block;html=1;rounded=0;endFill=1;" parent="1" edge="1">
          <mxGeometry width="50" height="50" relative="1" as="geometry">
            <mxPoint x="408" y="800" as="sourcePoint" />
            <mxPoint x="408" y="840" as="targetPoint" />
            <Array as="points">
              <mxPoint x="428" y="800" />
              <mxPoint x="428" y="830" />
              <mxPoint x="428" y="840" />
              <mxPoint x="418" y="840" />
              <mxPoint x="408" y="840" />
            </Array>
          </mxGeometry>
        </mxCell>
        <mxCell id="W4bPpXDh2dCY3aN5Ka2S-13" value="Обновить таблицу заявок" style="text;html=1;align=center;verticalAlign=middle;whiteSpace=wrap;rounded=0;fontSize=8;" parent="1" vertex="1">
          <mxGeometry x="437.25" y="870" width="70" height="10" as="geometry" />
        </mxCell>
        <mxCell id="W4bPpXDh2dCY3aN5Ka2S-15" value="Нажать кнопку ОК" style="text;html=1;align=center;verticalAlign=middle;whiteSpace=wrap;rounded=0;fontSize=8;fontStyle=0" parent="1" vertex="1">
          <mxGeometry x="264.75" y="777" width="97" height="10" as="geometry" />
        </mxCell>
        <mxCell id="W4bPpXDh2dCY3aN5Ka2S-18" value="" style="endArrow=none;dashed=1;html=1;rounded=0;exitX=0.5;exitY=0;exitDx=0;exitDy=0;entryX=0.5;entryY=1;entryDx=0;entryDy=0;strokeWidth=1;" parent="1" edge="1">
          <mxGeometry width="50" height="50" relative="1" as="geometry">
            <mxPoint x="223" y="415.00000000000006" as="sourcePoint" />
            <mxPoint x="223" y="374" as="targetPoint" />
          </mxGeometry>
        </mxCell>
        <mxCell id="W4bPpXDh2dCY3aN5Ka2S-19" value="" style="endArrow=none;dashed=1;html=1;rounded=0;exitX=0.5;exitY=0;exitDx=0;exitDy=0;entryX=0.5;entryY=1;entryDx=0;entryDy=0;strokeWidth=1;" parent="1" edge="1">
          <mxGeometry width="50" height="50" relative="1" as="geometry">
            <mxPoint x="402.89" y="415.00000000000006" as="sourcePoint" />
            <mxPoint x="402.89" y="374" as="targetPoint" />
          </mxGeometry>
        </mxCell>
        <mxCell id="W4bPpXDh2dCY3aN5Ka2S-20" value="" style="endArrow=none;dashed=1;html=1;rounded=0;exitX=0.5;exitY=0;exitDx=0;exitDy=0;entryX=0.5;entryY=1;entryDx=0;entryDy=0;strokeWidth=1;" parent="1" edge="1">
          <mxGeometry width="50" height="50" relative="1" as="geometry">
            <mxPoint x="223" y="600" as="sourcePoint" />
            <mxPoint x="223" y="559" as="targetPoint" />
          </mxGeometry>
        </mxCell>
        <mxCell id="W4bPpXDh2dCY3aN5Ka2S-21" value="" style="endArrow=none;dashed=1;html=1;rounded=0;exitX=0.5;exitY=0;exitDx=0;exitDy=0;entryX=0.5;entryY=1;entryDx=0;entryDy=0;strokeWidth=1;" parent="1" edge="1">
          <mxGeometry width="50" height="50" relative="1" as="geometry">
            <mxPoint x="402.89" y="600" as="sourcePoint" />
            <mxPoint x="402.89" y="559" as="targetPoint" />
          </mxGeometry>
        </mxCell>
        <mxCell id="W4bPpXDh2dCY3aN5Ka2S-22" value="" style="endArrow=none;dashed=1;html=1;rounded=0;exitX=0.5;exitY=0;exitDx=0;exitDy=0;entryX=0.5;entryY=1;entryDx=0;entryDy=0;strokeWidth=1;" parent="1" edge="1">
          <mxGeometry width="50" height="50" relative="1" as="geometry">
            <mxPoint x="222.99" y="790" as="sourcePoint" />
            <mxPoint x="222.99" y="749" as="targetPoint" />
          </mxGeometry>
        </mxCell>
        <mxCell id="W4bPpXDh2dCY3aN5Ka2S-23" value="" style="endArrow=none;dashed=1;html=1;rounded=0;exitX=0.5;exitY=0;exitDx=0;exitDy=0;entryX=0.5;entryY=1;entryDx=0;entryDy=0;strokeWidth=1;" parent="1" edge="1">
          <mxGeometry width="50" height="50" relative="1" as="geometry">
            <mxPoint x="402.88" y="790" as="sourcePoint" />
            <mxPoint x="402.88" y="749" as="targetPoint" />
          </mxGeometry>
        </mxCell>
        <mxCell id="W4bPpXDh2dCY3aN5Ka2S-24" value="&lt;b&gt;Оператор&lt;/b&gt;" style="shape=umlActor;verticalLabelPosition=bottom;verticalAlign=top;html=1;outlineConnect=0;" parent="1" vertex="1">
          <mxGeometry x="213" y="240" width="20" height="30" as="geometry" />
        </mxCell>
        <mxCell id="W4bPpXDh2dCY3aN5Ka2S-26" value="" style="rounded=0;whiteSpace=wrap;html=1;" parent="1" vertex="1">
          <mxGeometry x="357" y="274" width="90" height="20" as="geometry" />
        </mxCell>
        <mxCell id="W4bPpXDh2dCY3aN5Ka2S-27" value="Система" style="text;html=1;align=center;verticalAlign=middle;whiteSpace=wrap;rounded=0;fontStyle=1" parent="1" vertex="1">
          <mxGeometry x="372" y="274" width="60" height="20" as="geometry" />
        </mxCell>
        <mxCell id="W4bPpXDh2dCY3aN5Ka2S-28" value="" style="rounded=0;whiteSpace=wrap;html=1;" parent="1" vertex="1">
          <mxGeometry x="529" y="274" width="90" height="20" as="geometry" />
        </mxCell>
        <mxCell id="W4bPpXDh2dCY3aN5Ka2S-29" value="Система" style="text;html=1;align=center;verticalAlign=middle;whiteSpace=wrap;rounded=0;fontStyle=1" parent="1" vertex="1">
          <mxGeometry x="544" y="274" width="60" height="20" as="geometry" />
        </mxCell>
        <mxCell id="W4bPpXDh2dCY3aN5Ka2S-31" value="" style="endArrow=none;dashed=1;html=1;rounded=0;entryX=0.5;entryY=1;entryDx=0;entryDy=0;" parent="1" target="RP8nAy-NbZ3bPqBxSjjY-55" edge="1">
          <mxGeometry width="50" height="50" relative="1" as="geometry">
            <mxPoint x="574" y="930" as="sourcePoint" />
            <mxPoint x="569" y="700" as="targetPoint" />
          </mxGeometry>
        </mxCell>
        <mxCell id="W4bPpXDh2dCY3aN5Ka2S-33" value="" style="endArrow=none;dashed=1;html=1;rounded=0;entryX=0.5;entryY=1;entryDx=0;entryDy=0;strokeWidth=1;" parent="1" edge="1">
          <mxGeometry width="50" height="50" relative="1" as="geometry">
            <mxPoint x="224" y="930" as="sourcePoint" />
            <mxPoint x="224" y="900" as="targetPoint" />
          </mxGeometry>
        </mxCell>
        <mxCell id="W4bPpXDh2dCY3aN5Ka2S-34" value="" style="endArrow=none;dashed=1;html=1;rounded=0;entryX=0.5;entryY=1;entryDx=0;entryDy=0;strokeWidth=1;" parent="1" edge="1">
          <mxGeometry width="50" height="50" relative="1" as="geometry">
            <mxPoint x="404" y="930" as="sourcePoint" />
            <mxPoint x="403.89" y="900" as="targetPoint" />
          </mxGeometry>
        </mxCell>
        <mxCell id="W4bPpXDh2dCY3aN5Ka2S-35" value="" style="endArrow=none;html=1;rounded=0;" parent="1" edge="1">
          <mxGeometry width="50" height="50" relative="1" as="geometry">
            <mxPoint x="708" y="910" as="sourcePoint" />
            <mxPoint x="118" y="910" as="targetPoint" />
          </mxGeometry>
        </mxCell>
        <mxCell id="W4bPpXDh2dCY3aN5Ka2S-37" value="" style="endArrow=none;html=1;rounded=0;" parent="1" edge="1">
          <mxGeometry width="50" height="50" relative="1" as="geometry">
            <mxPoint x="708" y="910" as="sourcePoint" />
            <mxPoint x="708" y="470" as="targetPoint" />
          </mxGeometry>
        </mxCell>
        <mxCell id="W4bPpXDh2dCY3aN5Ka2S-40" value="" style="endArrow=none;dashed=1;html=1;rounded=0;exitX=0.5;exitY=0;exitDx=0;exitDy=0;entryX=0.5;entryY=1;entryDx=0;entryDy=0;strokeWidth=1;" parent="1" source="J6o21qsDTDcMWBDYwPVb-1" edge="1">
          <mxGeometry width="50" height="50" relative="1" as="geometry">
            <mxPoint x="223.18" y="334.50000000000006" as="sourcePoint" />
            <mxPoint x="223.18" y="293.5" as="targetPoint" />
          </mxGeometry>
        </mxCell>
        <mxCell id="W4bPpXDh2dCY3aN5Ka2S-41" value="" style="endArrow=none;dashed=1;html=1;rounded=0;exitX=0.5;exitY=0;exitDx=0;exitDy=0;entryX=0.5;entryY=1;entryDx=0;entryDy=0;strokeWidth=1;" parent="1" source="J6o21qsDTDcMWBDYwPVb-2" edge="1">
          <mxGeometry width="50" height="50" relative="1" as="geometry">
            <mxPoint x="403.07" y="334.50000000000006" as="sourcePoint" />
            <mxPoint x="403.07" y="293.5" as="targetPoint" />
          </mxGeometry>
        </mxCell>
        <mxCell id="W4bPpXDh2dCY3aN5Ka2S-42" value="" style="rounded=0;whiteSpace=wrap;html=1;" parent="1" vertex="1">
          <mxGeometry x="408" y="560" width="120" height="60" as="geometry" />
        </mxCell>
        <mxCell id="W4bPpXDh2dCY3aN5Ka2S-43" value="" style="rounded=0;whiteSpace=wrap;html=1;" parent="1" vertex="1">
          <mxGeometry x="408" y="560" width="120" height="60" as="geometry" />
        </mxCell>
      </root>
    </mxGraphModel>
  </diagram>
</mxfile>
